<svg width="2384" height="2361" viewBox="0 0 2384 2361" fill="none" xmlns="http://www.w3.org/2000/svg">
<path d="M2374.93 1088.37C2391.39 1075.06 2381.92 1048.44 2360.71 1048.44H1929.39C1918.11 1048.44 1908.63 1040.09 1906.83 1029.04C1874.79 840.222 1762 666.517 1583.33 563.197C1562.35 551.241 638.336 11.1792 628.185 5.31386C603.144 -9.34947 572.464 12.3071 577.878 40.7315L637.66 355.429C642.397 380.244 619.161 401.224 595.023 394.005L303.11 308.958C275.363 300.836 250.773 329.261 262.955 355.655L378.683 606.285C388.609 627.49 373.945 652.305 350.71 654.11L32.1769 679.602C3.0758 681.858 -9.55722 717.275 11.197 737.578L447.939 1164.85C455.158 1172.06 456.737 1183.34 451.548 1192.37L168.207 1683.25C161.891 1694.08 165.726 1707.84 176.329 1714.16L1290.07 2357.09C1300.89 2363.18 1314.65 2359.57 1320.75 2348.74L1720.26 1657.08C1727.03 1645.13 1743.05 1641.97 1753.88 1650.77L2046.02 1884.25C2063.61 1898.46 2088.65 1880.87 2081.43 1859.44L1944.73 1455.4C1941.79 1446.38 1944.5 1436.68 1951.95 1430.59L2374.93 1088.37ZM1539.79 1048.22H1183.59C1171.18 1047.99 1161.03 1037.84 1161.03 1025.43V856.69C1161.25 839.996 1178.4 829.168 1193.51 836.387L1549.49 1005.13C1571.15 1015.5 1563.93 1048.22 1539.79 1048.22Z" fill="white"/>
</svg>
